<?xml version="1.0" encoding="iso-8859-1"?>
<!-- Generator: Adobe Illustrator 19.0.0, SVG Export Plug-In . SVG Version: 6.00 Build 0)  -->
<svg version="1.1" id="Capa_1" xmlns="http://www.w3.org/2000/svg" xmlns:xlink="http://www.w3.org/1999/xlink" x="0px" y="0px"
	 viewBox="0 0 512.047 512.047" style="enable-background:new 0 0 512.047 512.047;" xml:space="preserve">
<g transform="translate(0 -1)">
	<g>
		<g>
			<path d="M193.975,13.348C133.377,38.449,93.873,97.589,93.89,163.18v187.733c0.103,89.501,72.632,162.03,162.133,162.133
				c89.501-0.103,162.03-72.632,162.133-162.133V163.18c0.09-43.018-16.995-84.293-47.462-114.662
				C324.325,2.128,254.573-11.754,193.975,13.348z M401.09,350.914c0,80.118-64.949,145.067-145.067,145.067
				s-145.067-64.949-145.067-145.067V214.38h43.102c4.348,53.091,48.704,93.964,101.973,93.964s97.626-40.873,101.973-93.964h43.085
				V350.914z M401.09,197.314h-51.2c-4.713,0-8.533,3.82-8.533,8.533c0,47.128-38.205,85.333-85.333,85.333
				s-85.333-38.205-85.333-85.333c0-4.713-3.82-8.533-8.533-8.533h-51.2V163.18c0.085-80.083,64.984-144.982,145.067-145.067
				c38.479-0.016,75.386,15.263,102.595,42.472c27.209,27.209,42.487,64.116,42.472,102.595V197.314z"/>
			<path d="M256.023,325.314c-37.703,0-68.267,30.564-68.267,68.267c0.042,37.685,30.582,68.224,68.267,68.267
				c37.703,0,68.267-30.564,68.267-68.267C324.29,355.878,293.726,325.314,256.023,325.314z M256.023,444.78
				c-28.277,0-51.2-22.923-51.2-51.2c0.028-28.265,22.935-51.172,51.2-51.2c28.277,0,51.2,22.923,51.2,51.2
				C307.223,421.857,284.3,444.78,256.023,444.78z"/>
			<path d="M256.023,137.58c-37.703,0-68.267,30.564-68.267,68.267c0.042,37.685,30.582,68.224,68.267,68.267
				c37.703,0,68.267-30.564,68.267-68.267S293.726,137.58,256.023,137.58z M256.023,257.047c-28.277,0-51.2-22.923-51.2-51.2
				c0.028-28.265,22.935-51.172,51.2-51.2c28.277,0,51.2,22.923,51.2,51.2C307.223,234.124,284.3,257.047,256.023,257.047z"/>
			<path d="M256.023,171.714c-18.851,0-34.133,15.282-34.133,34.133s15.282,34.133,34.133,34.133
				c18.851,0,34.133-15.282,34.133-34.133S274.875,171.714,256.023,171.714z M256.023,222.914c-9.426,0-17.067-7.641-17.067-17.067
				c0-9.426,7.641-17.067,17.067-17.067s17.067,7.641,17.067,17.067C273.09,215.273,265.449,222.914,256.023,222.914z"/>
			<path d="M256.023,359.447c-18.851,0-34.133,15.282-34.133,34.133c0,4.713,3.82,8.533,8.533,8.533s8.533-3.821,8.533-8.533
				c0-9.426,7.641-17.067,17.067-17.067s17.067,7.641,17.067,17.067c0,9.426-7.641,17.067-17.067,17.067
				c-4.713,0-8.533,3.82-8.533,8.533s3.82,8.533,8.533,8.533c18.851,0,34.133-15.282,34.133-34.133
				C290.157,374.729,274.875,359.447,256.023,359.447z"/>
			<path d="M68.29,333.847c-28.263-0.033-51.167-22.937-51.2-51.2c0-4.713-3.82-8.533-8.533-8.533s-8.533,3.821-8.533,8.533
				c0.042,37.685,30.582,68.224,68.267,68.267c4.713,0,8.533-3.82,8.533-8.533S73.003,333.847,68.29,333.847z"/>
			<path d="M68.29,299.714c-9.426,0-17.067-7.641-17.067-17.067c0-4.713-3.82-8.533-8.533-8.533s-8.533,3.821-8.533,8.533
				c0,18.851,15.282,34.133,34.133,34.133c4.713,0,8.533-3.82,8.533-8.533S73.003,299.714,68.29,299.714z"/>
			<path d="M68.29,86.38c-37.685,0.042-68.224,30.582-68.267,68.267c0,2.263,0.899,4.434,2.499,6.034
				c1.6,1.6,3.771,2.499,6.034,2.499c4.713,0,8.533-3.821,8.533-8.533c0.028-28.265,22.935-51.172,51.2-51.2
				c4.713,0,8.533-3.821,8.533-8.533C76.823,90.201,73.003,86.38,68.29,86.38z"/>
			<path d="M68.29,120.514c-18.851,0-34.133,15.282-34.133,34.133c0,4.713,3.82,8.533,8.533,8.533s8.533-3.821,8.533-8.533
				c0-9.426,7.641-17.067,17.067-17.067c4.713,0,8.533-3.82,8.533-8.533S73.003,120.514,68.29,120.514z"/>
			<path d="M503.49,274.114c-4.713,0-8.533,3.821-8.533,8.533c-0.033,28.263-22.937,51.167-51.2,51.2
				c-4.713,0-8.533,3.821-8.533,8.533s3.82,8.533,8.533,8.533c37.685-0.042,68.224-30.582,68.267-68.267
				C512.023,277.934,508.203,274.114,503.49,274.114z"/>
			<path d="M443.757,316.78c18.851,0,34.133-15.282,34.133-34.133c0-4.713-3.82-8.533-8.533-8.533s-8.533,3.821-8.533,8.533
				c0,9.426-7.641,17.067-17.067,17.067c-4.713,0-8.533,3.82-8.533,8.533S439.044,316.78,443.757,316.78z"/>
			<path d="M443.757,103.447c28.265,0.028,51.172,22.935,51.2,51.2c0,4.713,3.82,8.533,8.533,8.533s8.533-3.821,8.533-8.533
				c-0.042-37.685-30.582-68.224-68.267-68.267c-4.713,0-8.533,3.821-8.533,8.533C435.223,99.626,439.044,103.447,443.757,103.447z"
				/>
			<path d="M443.757,137.58c9.426,0,17.067,7.641,17.067,17.067c0,4.713,3.82,8.533,8.533,8.533s8.533-3.821,8.533-8.533
				c0-18.851-15.282-34.133-34.133-34.133c-4.713,0-8.533,3.82-8.533,8.533S439.044,137.58,443.757,137.58z"/>
		</g>
	</g>
</g>
<g>
</g>
<g>
</g>
<g>
</g>
<g>
</g>
<g>
</g>
<g>
</g>
<g>
</g>
<g>
</g>
<g>
</g>
<g>
</g>
<g>
</g>
<g>
</g>
<g>
</g>
<g>
</g>
<g>
</g>
</svg>
