<?xml version="1.0" encoding="iso-8859-1"?>
<!-- Generator: Adobe Illustrator 19.0.0, SVG Export Plug-In . SVG Version: 6.00 Build 0)  -->
<svg version="1.1" id="Capa_1" xmlns="http://www.w3.org/2000/svg" xmlns:xlink="http://www.w3.org/1999/xlink" x="0px" y="0px"
	 viewBox="0 0 512.138 512.138" style="enable-background:new 0 0 512.138 512.138;" xml:space="preserve">
<g>
	<g>
		<g>
			<path d="M290.133,349.912h-68.267c-4.713,0-8.533,3.82-8.533,8.533s3.82,8.533,8.533,8.533h68.267
				c4.713,0,8.533-3.82,8.533-8.533S294.846,349.912,290.133,349.912z"/>
			<path d="M290.133,384.045h-68.267c-4.713,0-8.533,3.821-8.533,8.533c0,4.713,3.82,8.533,8.533,8.533h68.267
				c4.713,0,8.533-3.821,8.533-8.533C298.667,387.865,294.846,384.045,290.133,384.045z"/>
			<path d="M472.115,354.622h0.026c-17.722-49.298-47.019-93.621-85.427-129.246c-18.13-16.451-28.421-39.826-28.314-64.307V80.173
				c-0.029-14.653-11.04-26.956-25.6-28.604V25.645c0-14.138-11.461-25.6-25.6-25.6s-25.6,11.461-25.6,25.6v25.6h-51.2v-25.6
				c0-14.138-11.462-25.6-25.6-25.6s-25.6,11.461-25.6,25.6v25.924c-14.56,1.647-25.572,13.951-25.6,28.604v80.896
				c0.108,24.487-10.191,47.867-28.331,64.316C68.386,278.339,31.92,349.599,22.246,426.712H17.98
				c-9.93,0.023-17.97,8.075-17.98,18.005v50.261h375.689c25.03,18.826,58.369,22.406,86.826,9.323
				c28.456-13.083,47.443-40.72,49.448-71.976C513.967,401.07,498.667,371.233,472.115,354.622z M298.667,25.645
				c0-4.713,3.82-8.533,8.533-8.533s8.533,3.82,8.533,8.533v25.6h-17.067V25.645z M196.267,25.645c0-4.713,3.82-8.533,8.533-8.533
				s8.533,3.82,8.533,8.533v25.6h-17.067V25.645z M170.667,161.069V80.173c-0.019-6.525,5.251-11.833,11.776-11.861h147.115
				c6.525,0.028,11.795,5.336,11.776,11.861v80.896c0.033,12.016,2.128,23.936,6.195,35.243H204.8c-4.713,0-8.533,3.82-8.533,8.533
				s3.82,8.533,8.533,8.533h150.519c3.518,6.1,7.659,11.82,12.356,17.067h-223.36C161.347,211.356,170.731,186.651,170.667,161.069z
				 M127.019,247.264v-0.009c0.389,0.112,0.785,0.195,1.186,0.247H384c0.316,0,0.58-0.154,0.853-0.179
				c27.644,28.037,49.713,61.069,65.033,97.34c-25.723-7.358-53.408-2.197-74.751,13.935s-33.862,41.359-33.801,68.113H39.424
				C48.797,359.103,79.481,296.243,127.019,247.264z M17.067,477.912v-33.195c0.018-0.511,0.428-0.921,0.939-0.939H343.04
				c2.558,12.392,7.856,24.054,15.505,34.133H17.067z M426.667,494.978c-37.703,0-68.267-30.564-68.267-68.267
				s30.564-68.267,68.267-68.267s68.267,30.564,68.267,68.267C494.891,464.397,464.352,494.936,426.667,494.978z"/>
			<path d="M426.667,375.512c-4.713,0-8.533,3.82-8.533,8.533v51.2c0,4.713,3.82,8.533,8.533,8.533s8.533-3.82,8.533-8.533v-51.2
				C435.2,379.332,431.38,375.512,426.667,375.512z"/>
			<path d="M426.667,452.311c-4.713,0-8.533,3.821-8.533,8.533v8.533c0,4.713,3.82,8.533,8.533,8.533s8.533-3.82,8.533-8.533v-8.533
				C435.2,456.132,431.38,452.311,426.667,452.311z"/>
		</g>
	</g>
</g>
<g>
</g>
<g>
</g>
<g>
</g>
<g>
</g>
<g>
</g>
<g>
</g>
<g>
</g>
<g>
</g>
<g>
</g>
<g>
</g>
<g>
</g>
<g>
</g>
<g>
</g>
<g>
</g>
<g>
</g>
</svg>
