<svg height="480pt" viewBox="0 0 480.00193 480" width="480pt" xmlns="http://www.w3.org/2000/svg"><path d="m472 328h-128v-320c0-4.417969-3.578125-8-8-8h-240c-4.417969 0-8 3.582031-8 8v464c0 4.417969 3.582031 8 8 8h240c4.421875 0 8-3.582031 8-8v-88h128c4.421875 0 8-3.582031 8-8v-40c0-4.417969-3.578125-8-8-8zm-144 136h-224v-448h224v312h-30.109375c-15.691406-40.160156-58.171875-63.039062-100.34375-54.035156-42.167969 9.003906-71.601563 47.234375-69.519531 90.304687 2.078125 43.066407 35.058594 78.285157 77.898437 83.183594 42.839844 4.898437 82.917969-21.964844 94.667969-63.453125h27.40625zm-128-80h83.800781c-11.40625 32.292969-43.980469 52.082031-77.894531 47.320312-33.917969-4.761718-59.785156-32.753906-61.859375-66.9375-2.078125-34.183593 20.214844-65.101562 53.304687-73.929687 33.089844-8.828125 67.820313 6.871094 83.050782 37.546875h-80.402344c-4.417969 0-8 3.582031-8 8v40c0 4.417969 3.582031 8 8 8zm128-16h-120v-24h256v24zm0 0"/><path d="m136 56h32v-16h-40c-4.417969 0-8 3.582031-8 8v32h16zm0 0"/><path d="m208 56h32v-16h-40c-4.417969 0-8 3.582031-8 8v32h16zm0 0"/><path d="m280 56h32v-16h-40c-4.417969 0-8 3.582031-8 8v32h16zm0 0"/><path d="m136 112h32v-16h-40c-4.417969 0-8 3.582031-8 8v32h16zm0 0"/><path d="m208 112h32v-16h-40c-4.417969 0-8 3.582031-8 8v32h16zm0 0"/><path d="m280 112h32v-16h-40c-4.417969 0-8 3.582031-8 8v32h16zm0 0"/><path d="m136 168h32v-16h-40c-4.417969 0-8 3.582031-8 8v32h16zm0 0"/><path d="m208 168h32v-16h-40c-4.417969 0-8 3.582031-8 8v32h16zm0 0"/><path d="m280 168h32v-16h-40c-4.417969 0-8 3.582031-8 8v32h16zm0 0"/><path d="m208 224h32v-16h-40c-4.417969 0-8 3.582031-8 8v32h16zm0 0"/><path d="m168 232c0-13.253906-10.742188-24-24-24-13.253906 0-24 10.746094-24 24s10.746094 24 24 24c13.257812 0 24-10.746094 24-24zm-32 0c0-4.417969 3.582031-8 8-8 4.421875 0 8 3.582031 8 8s-3.578125 8-8 8c-4.417969 0-8-3.582031-8-8zm0 0"/><path d="m288 256c13.257812 0 24-10.746094 24-24s-10.742188-24-24-24c-13.253906 0-24 10.746094-24 24s10.746094 24 24 24zm0-32c4.421875 0 8 3.582031 8 8s-3.578125 8-8 8c-4.417969 0-8-3.582031-8-8s3.582031-8 8-8zm0 0"/><path d="m16.410156 386.527344c1.089844 3.269531 4.148438 5.472656 7.589844 5.472656h32v88h16v-480h-16v328h-48c-2.570312 0-4.984375 1.234375-6.488281 3.320312-1.5039065 2.085938-1.914063 4.769532-1.101563 7.207032zm39.589844-42.527344v32h-26.230469l-10.671875-32zm0 0"/></svg>